<?xml version="1.0" encoding="utf-8"?>
<!-- Generated by IcoMoon.io -->
<!DOCTYPE svg PUBLIC "-//W3C//DTD SVG 1.1//EN" "http://www.w3.org/Graphics/SVG/1.1/DTD/svg11.dtd">
<svg version="1.1" xmlns="http://www.w3.org/2000/svg" xmlns:xlink="http://www.w3.org/1999/xlink" width="224" height="32" viewBox="0 0 224 32">
<g transform="translate(0 0)">
	<path d="M28 8v-4h-28v22c0 1.105 0.895 2 2 2h27c1.657 0 3-1.343 3-3v-17h-4zM26 26h-24v-20h24v20zM4 10h20v2h-20zM16 14h8v2h-8zM16 18h8v2h-8zM16 22h6v2h-6zM4 14h10v10h-10z" fill="#ffffff" />
</g>
<g transform="translate(48 0)">
	<path d="M27 0h-24c-1.65 0-3 1.35-3 3v26c0 1.65 1.35 3 3 3h24c1.65 0 3-1.35 3-3v-26c0-1.65-1.35-3-3-3zM26 28h-22v-24h22v24zM8 14h14v2h-14zM8 18h14v2h-14zM8 22h14v2h-14zM8 10h14v2h-14z" fill="#ffffff" />
</g>
<g transform="translate(96 0)">
	<path d="M32 26v-24h-32v24h14v2h-6v2h16v-2h-6v-2h14zM4 6h24v16h-24v-16z" fill="#ffffff" />
</g>
<g transform="translate(144 0)">
	<path d="M27 0h-24c-1.65 0-3 1.35-3 3v26c0 1.65 1.35 3 3 3h24c1.65 0 3-1.35 3-3v-26c0-1.65-1.35-3-3-3zM26 28h-22v-24h22v24zM8 18h14v2h-14zM8 22h14v2h-14zM10 9c0-1.657 1.343-3 3-3s3 1.343 3 3c0 1.657-1.343 3-3 3-1.657 0-3-1.343-3-3zM15 12h-4c-1.65 0-3 0.9-3 2v2h10v-2c0-1.1-1.35-2-3-2z" fill="#ffffff" />
</g>
<g transform="translate(192 0)">
	<path d="M32 19.003v-6.006l-4.587-0.764c-0.186-0.567-0.413-1.115-0.678-1.641l2.702-3.782-4.247-4.247-3.776 2.697c-0.528-0.267-1.079-0.497-1.649-0.684l-0.763-4.575h-6.006l-0.763 4.575c-0.57 0.188-1.121 0.417-1.649 0.684l-3.776-2.697-4.247 4.247 2.702 3.782c-0.265 0.526-0.492 1.074-0.678 1.641l-4.587 0.764v6.006l4.597 0.766c0.186 0.561 0.413 1.105 0.676 1.626l-2.711 3.795 4.247 4.247 3.802-2.715c0.519 0.261 1.059 0.485 1.618 0.67l0.768 4.608h6.006l0.768-4.609c0.559-0.185 1.099-0.409 1.618-0.67l3.802 2.715 4.247-4.247-2.711-3.795c0.264-0.521 0.49-1.064 0.676-1.626l4.597-0.766zM16 20c-2.209 0-4-1.791-4-4 0-2.209 1.791-4 4-4 2.209 0 4 1.791 4 4 0 2.209-1.791 4-4 4z" fill="#ffffff" />
</g>
</svg>
